<svg width="37" height="36" viewBox="0 0 37 36" fill="none" xmlns="http://www.w3.org/2000/svg">
<path d="M18.3685 13.3137C15.788 13.3137 13.6821 15.4196 13.6821 18C13.6821 20.5805 15.788 22.6864 18.3685 22.6864C20.9489 22.6864 23.0548 20.5805 23.0548 18C23.0548 15.4196 20.9489 13.3137 18.3685 13.3137ZM32.4239 18C32.4239 16.0594 32.4415 14.1364 32.3325 12.1992C32.2235 9.94924 31.7103 7.95236 30.0649 6.30705C28.4161 4.65822 26.4228 4.14846 24.1728 4.03947C22.2321 3.93049 20.3091 3.94807 18.372 3.94807C16.4313 3.94807 14.5083 3.93049 12.5712 4.03947C10.3212 4.14846 8.32431 4.66174 6.679 6.30705C5.03017 7.95588 4.52041 9.94924 4.41142 12.1992C4.30244 14.1399 4.32002 16.0629 4.32002 18C4.32002 19.9371 4.30244 21.8637 4.41142 23.8008C4.52041 26.0508 5.03369 28.0477 6.679 29.693C8.32783 31.3418 10.3212 31.8516 12.5712 31.9606C14.5118 32.0696 16.4349 32.052 18.372 32.052C20.3126 32.052 22.2356 32.0696 24.1728 31.9606C26.4228 31.8516 28.4196 31.3383 30.0649 29.693C31.7138 28.0442 32.2235 26.0508 32.3325 23.8008C32.445 21.8637 32.4239 19.9406 32.4239 18ZM18.3685 25.2106C14.3782 25.2106 11.1579 21.9903 11.1579 18C11.1579 14.0098 14.3782 10.7895 18.3685 10.7895C22.3587 10.7895 25.579 14.0098 25.579 18C25.579 21.9903 22.3587 25.2106 18.3685 25.2106ZM25.8743 12.1781C24.9427 12.1781 24.1903 11.4258 24.1903 10.4942C24.1903 9.56252 24.9427 8.81018 25.8743 8.81018C26.806 8.81018 27.5583 9.56252 27.5583 10.4942C27.5586 10.7154 27.5152 10.9345 27.4307 11.1389C27.3462 11.3434 27.2221 11.5291 27.0657 11.6855C26.9093 11.842 26.7235 11.966 26.5191 12.0505C26.3146 12.1351 26.0955 12.1784 25.8743 12.1781Z" fill="#919191"/>
</svg>
