<svg width="37" height="36" viewBox="0 0 37 36" fill="none" xmlns="http://www.w3.org/2000/svg">
<path d="M34.8462 9.56435C34.4573 8.11848 33.3173 6.97871 31.8716 6.58939C29.2306 5.86676 18.6662 5.86676 18.6662 5.86676C18.6662 5.86676 8.10224 5.86676 5.4612 6.56199C4.04334 6.9509 2.87556 8.11868 2.48665 9.56435C1.79163 12.2052 1.79163 17.6819 1.79163 17.6819C1.79163 17.6819 1.79163 23.1863 2.48665 25.7995C2.87598 27.2452 4.01553 28.385 5.4614 28.7743C8.13005 29.4971 18.6666 29.4971 18.6666 29.4971C18.6666 29.4971 29.2306 29.4971 31.8716 28.8019C33.3175 28.4128 34.4573 27.273 34.8466 25.8273C35.5414 23.1863 35.5414 17.7097 35.5414 17.7097C35.5414 17.7097 35.5692 12.2052 34.8462 9.56435ZM15.3027 22.7416V12.6223L24.0876 17.6819L15.3027 22.7416Z" fill="#919191"/>
</svg>
